<?xml version="1.0" encoding="iso-8859-1"?>
<!-- Uploaded to: SVG Repo, www.svgrepo.com, Generator: SVG Repo Mixer Tools -->
<svg version="1.1" id="Layer_1" xmlns="http://www.w3.org/2000/svg" xmlns:xlink="http://www.w3.org/1999/xlink" 
	 viewBox="0 0 512 512" xml:space="preserve">
<circle style="fill:#FFD15D;" cx="256" cy="256" r="256"/>
<path style="fill:#F9B54C;" d="M512,256c0-2.491-0.045-4.97-0.115-7.444L380.554,117.226L230.719,289.328l-99.706,104.288
	L249.31,511.912c2.224,0.057,4.453,0.086,6.69,0.086C397.384,512,512,397.384,512,256z"/>
<path style="fill:#E6F3FF;" d="M380.554,401.67H149.263c-13.646,0-24.71-11.062-24.71-24.709V141.936
	c0.002-13.648,11.064-24.71,24.71-24.71h231.291V401.67z"/>
<rect x="227.28" y="117.226" style="fill:#CFDBE6;" width="153.29" height="284.444"/>
<rect x="323.663" y="117.226" style="fill:#A82116;" width="56.889" height="284.444"/>
<polygon style="fill:#935635;" points="181.443,202.559 166.729,194.263 152.998,202.559 152.998,117.226 181.443,117.226 "/>
<path style="fill:#F1543F;" d="M166.846,260.961c0-16.546,13.495-29.958,30.139-29.958s30.139,13.412,30.139,29.958
	c0-16.546,13.495-29.958,30.139-29.958s30.139,13.412,30.139,29.958c0,28.646-60.28,62.912-60.28,62.912
	S166.846,291.223,166.846,260.961z"/>
<path style="fill:#D83E20;" d="M287.406,260.961c0-16.546-13.495-29.958-30.141-29.958c-15.681,0-28.555,11.907-29.996,27.119
	v65.669C230.252,322.077,287.406,288.861,287.406,260.961z"/>
</svg>